<?xml version="1.0" encoding="UTF-8"?>
<svg width="46px" height="46px" viewBox="0 0 46 46" version="1.1" xmlns="http://www.w3.org/2000/svg" xmlns:xlink="http://www.w3.org/1999/xlink">
    <!-- Generator: Sketch 44.1 (41455) - http://www.bohemiancoding.com/sketch -->
    <title>wavy-border</title>
    <desc>Created with Sketch.</desc>
    <defs></defs>
    <g id="Page-1" stroke="none" stroke-width="1" fill="none" fill-rule="evenodd">
        <g id="Artboard" transform="translate(-431.000000, -1365.000000)" stroke="#000000" stroke-width="0.5">
            <g id="wavy-border" transform="translate(432.000000, 1366.000000)">
                <path d="M2,0.0100850966 C2.96861748,-0.065133572 3.99712734,0.280040681 4.81864338,1.0578669 C6.06633717,2.33096664 8.15655617,2.33265027 9.61900493,0.947977373 C10.2620326,0.295016459 11.1233061,-0.023526375 12.0068193,0.00135213571" id="wave-horizontal-copy-8" transform="translate(7.003410, 1.000000) scale(1, -1) translate(-7.003410, -1.000000) "></path>
                <path d="M12,0.0100850966 C12.9686175,-0.065133572 13.9971273,0.280040681 14.8186434,1.0578669 C16.0663372,2.33096664 18.1565562,2.33265027 19.6190049,0.947977373 C20.2620326,0.295016459 21.1233061,-0.023526375 22.0068193,0.00135213571" id="wave-horizontal-copy-12" transform="translate(17.003410, 1.000000) scale(1, -1) translate(-17.003410, -1.000000) "></path>
                <path d="M12,42.0100851 C12.9686175,41.9348664 13.9971273,42.2800407 14.8186434,43.0578669 C16.0663372,44.3309666 18.1565562,44.3326503 19.6190049,42.9479774 C20.2620326,42.2950165 21.1233061,41.9764736 22.0068193,42.0013521" id="wave-horizontal-copy-20" transform="translate(17.003410, 43.000000) scale(1, -1) rotate(180.000000) translate(-17.003410, -43.000000) "></path>
                <path d="M37.9965903,16.0134948 C38.9652078,15.9382761 39.9937177,16.2834504 40.8152337,17.0612766 C42.0629275,18.3343763 44.1531465,18.3360599 45.6155953,16.951387 C46.2586229,16.2984261 47.1198965,15.9798833 48.0034097,16.0047618" id="wave-horizontal-copy-16" transform="translate(43.000000, 17.003410) scale(1, -1) rotate(270.000000) translate(-43.000000, -17.003410) "></path>
                <path d="M-4.00340967,16.0134948 C-3.03479219,15.9382761 -2.00628233,16.2834504 -1.1847663,17.0612766 C0.0629274965,18.3343763 2.1531465,18.3360599 3.61559526,16.951387 C4.25862293,16.2984261 5.11989646,15.9798833 6.00340967,16.0047618" id="wave-horizontal-copy-18" transform="translate(1.000000, 17.003410) scale(1, -1) rotate(90.000000) translate(-1.000000, -17.003410) "></path>
                <path d="M37.9965903,26.0134948 C38.9652078,25.9382761 39.9937177,26.2834504 40.8152337,27.0612766 C42.0629275,28.3343763 44.1531465,28.3360599 45.6155953,26.951387 C46.2586229,26.2984261 47.1198965,25.9798833 48.0034097,26.0047618" id="wave-horizontal-copy-17" transform="translate(43.000000, 27.003410) scale(1, -1) rotate(270.000000) translate(-43.000000, -27.003410) "></path>
                <path d="M-4.00340967,26.0134948 C-3.03479219,25.9382761 -2.00628233,26.2834504 -1.1847663,27.0612766 C0.0629274965,28.3343763 2.1531465,28.3360599 3.61559526,26.951387 C4.25862293,26.2984261 5.11989646,25.9798833 6.00340967,26.0047618" id="wave-horizontal-copy-19" transform="translate(1.000000, 27.003410) scale(1, -1) rotate(90.000000) translate(-1.000000, -27.003410) "></path>
                <path d="M22,0.0100850966 C22.9686175,-0.065133572 23.9971273,0.280040681 24.8186434,1.0578669 C26.0663372,2.33096664 28.1565562,2.33265027 29.6190049,0.947977373 C30.2620326,0.295016459 31.1233061,-0.023526375 32.0068193,0.00135213571" id="wave-horizontal-copy-15" transform="translate(27.003410, 1.000000) scale(1, -1) translate(-27.003410, -1.000000) "></path>
                <path d="M22,42.0100851 C22.9686175,41.9348664 23.9971273,42.2800407 24.8186434,43.0578669 C26.0663372,44.3309666 28.1565562,44.3326503 29.6190049,42.9479774 C30.2620326,42.2950165 31.1233061,41.9764736 32.0068193,42.0013521" id="wave-horizontal-copy-21" transform="translate(27.003410, 43.000000) scale(1, -1) rotate(180.000000) translate(-27.003410, -43.000000) "></path>
                <path d="M-4.00340967,6.01349477 C-3.03479219,5.9382761 -2.00628233,6.28345036 -1.1847663,7.06127657 C0.0629274965,8.33437631 2.1531465,8.33605995 3.61559526,6.95138705 C4.25862293,6.29842613 5.11989646,5.9798833 6.00340967,6.00476181" id="wave-horizontal-copy-11" transform="translate(1.000000, 7.003410) scale(1, -1) rotate(90.000000) translate(-1.000000, -7.003410) "></path>
                <g id="Group-4" transform="translate(37.500000, 6.500000) rotate(90.000000) translate(-37.500000, -6.500000) translate(31.000000, 0.000000)">
                    <path d="M2,0.0100850966 C2.96861748,-0.065133572 3.99712734,0.280040681 4.81864338,1.0578669 C6.06633717,2.33096664 8.15655617,2.33265027 9.61900493,0.947977373 C10.2620326,0.295016459 11.1233061,-0.023526375 12.0068193,0.00135213571" id="wave-horizontal-copy-13" transform="translate(7.003410, 1.000000) scale(1, -1) translate(-7.003410, -1.000000) "></path>
                    <path d="M-4.00340967,6.01349477 C-3.03479219,5.9382761 -2.00628233,6.28345036 -1.1847663,7.06127657 C0.0629274965,8.33437631 2.1531465,8.33605995 3.61559526,6.95138705 C4.25862293,6.29842613 5.11989646,5.9798833 6.00340967,6.00476181" id="wave-horizontal-copy-14" transform="translate(1.000000, 7.003410) scale(1, -1) rotate(90.000000) translate(-1.000000, -7.003410) "></path>
                </g>
                <g id="Group-4-Copy" transform="translate(37.500000, 37.500000) rotate(180.000000) translate(-37.500000, -37.500000) translate(31.000000, 31.000000)">
                    <path d="M2,0.0100850966 C2.96861748,-0.065133572 3.99712734,0.280040681 4.81864338,1.0578669 C6.06633717,2.33096664 8.15655617,2.33265027 9.61900493,0.947977373 C10.2620326,0.295016459 11.1233061,-0.023526375 12.0068193,0.00135213571" id="wave-horizontal-copy-13" transform="translate(7.003410, 1.000000) scale(1, -1) translate(-7.003410, -1.000000) "></path>
                    <path d="M-4.00340967,6.01349477 C-3.03479219,5.9382761 -2.00628233,6.28345036 -1.1847663,7.06127657 C0.0629274965,8.33437631 2.1531465,8.33605995 3.61559526,6.95138705 C4.25862293,6.29842613 5.11989646,5.9798833 6.00340967,6.00476181" id="wave-horizontal-copy-14" transform="translate(1.000000, 7.003410) scale(1, -1) rotate(90.000000) translate(-1.000000, -7.003410) "></path>
                </g>
                <g id="Group-4-Copy-2" transform="translate(6.500000, 37.500000) rotate(270.000000) translate(-6.500000, -37.500000) translate(0.000000, 31.000000)">
                    <path d="M2,0.0100850966 C2.96861748,-0.065133572 3.99712734,0.280040681 4.81864338,1.0578669 C6.06633717,2.33096664 8.15655617,2.33265027 9.61900493,0.947977373 C10.2620326,0.295016459 11.1233061,-0.023526375 12.0068193,0.00135213571" id="wave-horizontal-copy-13" transform="translate(7.003410, 1.000000) scale(1, -1) translate(-7.003410, -1.000000) "></path>
                    <path d="M-4.00340967,6.01349477 C-3.03479219,5.9382761 -2.00628233,6.28345036 -1.1847663,7.06127657 C0.0629274965,8.33437631 2.1531465,8.33605995 3.61559526,6.95138705 C4.25862293,6.29842613 5.11989646,5.9798833 6.00340967,6.00476181" id="wave-horizontal-copy-14" transform="translate(1.000000, 7.003410) scale(1, -1) rotate(90.000000) translate(-1.000000, -7.003410) "></path>
                </g>
            </g>
        </g>
    </g>
</svg>